name tmp\angles_pectmin2.mot
datacolumns 15
datarows 54
range 0.250000 0.350379
endheader
time  THx THy THz SCy SCz SCx ACy ACz ACx GHy GHz GHyy ELx PSy
0.250000	0.000000	0.000000	0.000000	-50.158759	19.786713	40.206039	62.176554	-6.240476	6.456294	-73.079300	56.592156	35.640891	0.000000	0.000000	
0.251894	0.000000	0.000000	0.000000	-54.079495	21.806196	52.801418	62.527088	-11.417254	7.468634	-62.988145	68.353764	32.977476	0.000000	0.000000	
0.253788	0.000000	0.000000	0.000000	-49.723146	19.730264	36.773568	63.038125	-2.565680	8.990798	-62.128901	53.779726	22.967835	0.000000	0.000000	
0.255682	0.000000	0.000000	0.000000	-43.357502	16.592026	27.442990	61.701586	-2.894744	3.988326	-65.570236	33.070124	17.376146	0.000000	0.000000	
0.257576	0.000000	0.000000	0.000000	-38.401074	14.171078	18.490569	60.253578	-1.475242	1.579816	-65.633219	17.116926	17.425987	0.000000	0.000000	
0.259470	0.000000	0.000000	0.000000	-28.187751	9.618259	8.632422	59.035088	-2.626536	-3.282478	71.581659	8.029597	-107.408286	0.000000	0.000000	
0.261364	0.000000	0.000000	0.000000	-31.214672	10.837933	10.848327	58.613044	-2.695850	-2.463009	57.155590	2.771737	-96.483405	0.000000	0.000000	
0.263258	0.000000	0.000000	0.000000	-41.141078	15.281410	22.905718	59.688592	-3.546944	1.158490	-87.929136	24.899859	45.796895	0.000000	0.000000	
0.265152	0.000000	0.000000	0.000000	-48.058964	18.693935	35.527552	61.551857	-5.375732	4.958796	-79.211249	49.663499	38.073545	0.000000	0.000000	
0.267045	0.000000	0.000000	0.000000	-52.909674	21.176760	40.439840	62.796214	-2.437788	10.830409	-67.862136	65.388862	27.896743	0.000000	0.000000	
0.268939	0.000000	0.000000	0.000000	-52.008286	20.899713	43.582389	63.381080	-5.178731	9.789314	-57.278394	60.497243	23.137089	0.000000	0.000000	
0.270833	0.000000	0.000000	0.000000	-45.674863	17.754974	33.876321	62.312213	-5.316229	4.525137	-62.836979	40.622322	20.128811	0.000000	0.000000	
0.272727	0.000000	0.000000	0.000000	-39.193633	14.600171	20.081367	60.777084	-1.510758	2.194845	-60.671250	19.957773	10.514583	0.000000	0.000000	
0.274621	0.000000	0.000000	0.000000	-28.151787	9.609173	8.500199	59.079844	-2.492560	-3.201781	70.901393	8.176347	-112.141158	0.000000	0.000000	
0.276515	0.000000	0.000000	0.000000	-29.196457	10.032616	7.817934	58.980713	-1.257773	-2.151636	67.050386	6.546256	-109.249913	0.000000	0.000000	
0.278409	0.000000	0.000000	0.000000	-31.379934	10.732860	9.801884	57.436943	-3.047440	-2.994027	137.641395	4.403863	179.491673	0.000000	0.000000	
0.280303	0.000000	0.000000	0.000000	-36.867306	12.881525	17.294115	55.997147	-6.520815	-4.082533	-160.050168	10.940236	125.888060	0.000000	0.000000	
0.282197	0.000000	0.000000	0.000000	-38.761341	13.918962	18.864881	57.568420	-4.632365	-1.577055	-118.463874	15.695369	78.069561	0.000000	0.000000	
0.284091	0.000000	0.000000	0.000000	-49.155360	19.330579	38.812452	62.220710	-6.069997	5.998435	-71.283517	52.862311	26.229070	0.000000	0.000000	
0.285985	0.000000	0.000000	0.000000	-53.549680	21.580475	52.269856	62.659406	-11.407031	7.300525	-61.226749	66.209339	18.940327	0.000000	0.000000	
0.287879	0.000000	0.000000	0.000000	-51.328446	20.542231	43.702412	63.163984	-6.391157	8.470631	-59.418388	58.645926	18.708111	0.000000	0.000000	
0.289773	0.000000	0.000000	0.000000	-39.243514	14.518433	20.574282	60.111297	-2.698787	1.144716	-72.999321	19.321211	27.262819	0.000000	0.000000	
0.291667	0.000000	0.000000	0.000000	-32.625838	11.416638	12.719408	58.448103	-3.361809	-2.457421	-31.007019	0.914305	-8.134459	0.000000	0.000000	
0.293561	0.000000	0.000000	0.000000	-31.300769	10.692623	9.989106	57.383105	-3.317232	-3.203511	137.133013	4.663913	-160.358614	0.000000	0.000000	
0.295455	0.000000	0.000000	0.000000	-31.507267	10.797579	8.959130	57.533763	-2.156035	-2.366610	138.590863	3.986566	-167.618473	0.000000	0.000000	
0.297348	0.000000	0.000000	0.000000	-38.366140	13.967339	19.976805	58.983281	-4.241726	-0.730192	-89.635106	15.631072	50.487532	0.000000	0.000000	
0.299242	0.000000	0.000000	0.000000	-45.939018	17.706559	32.037610	61.418507	-4.702151	4.069340	-76.911306	41.947188	40.600974	0.000000	0.000000	
0.301136	0.000000	0.000000	0.000000	-51.734576	20.657444	42.580983	62.859020	-5.488200	8.702870	-65.018166	60.857929	35.148458	0.000000	0.000000	
0.303030	0.000000	0.000000	0.000000	-52.447012	21.074310	47.860001	63.008085	-8.713415	8.066386	-59.795977	62.325871	29.293583	0.000000	0.000000	
0.304924	0.000000	0.000000	0.000000	-46.407586	18.074925	35.144738	62.227606	-5.769786	4.612305	-65.810567	43.128925	27.481743	0.000000	0.000000	
0.306818	0.000000	0.000000	0.000000	-30.514733	10.293109	7.003427	56.982221	-1.923053	-2.647954	133.976136	7.262209	174.887434	0.000000	0.000000	
0.308712	0.000000	0.000000	0.000000	-36.810210	13.151153	16.876492	58.060535	-3.992441	-1.604822	-107.485292	10.409684	44.944621	0.000000	0.000000	
0.310606	0.000000	0.000000	0.000000	-44.020170	16.697281	27.027263	60.593391	-3.352906	3.141878	-83.871210	35.178922	22.118976	0.000000	0.000000	
0.312500	0.000000	0.000000	0.000000	-51.355791	20.449346	41.236070	62.745605	-4.973668	8.526538	-66.865581	59.870525	13.948906	0.000000	0.000000	
0.314394	0.000000	0.000000	0.000000	-53.116306	21.438500	45.704723	63.390219	-5.606562	10.434366	-56.804381	63.937664	12.470191	0.000000	0.000000	
0.316288	0.000000	0.000000	0.000000	-47.074152	18.480511	35.779815	62.816613	-4.847451	6.062772	-59.351620	45.001370	6.047011	0.000000	0.000000	
0.318182	0.000000	0.000000	0.000000	-41.179910	15.603771	23.399134	61.584383	-1.583232	3.567317	-57.946985	26.368726	2.145521	0.000000	0.000000	
0.320076	0.000000	0.000000	0.000000	-34.625090	12.505958	14.649264	60.028569	-1.595263	-0.057440	-30.775188	8.782163	-23.514833	0.000000	0.000000	
0.321970	0.000000	0.000000	0.000000	-25.866389	8.786922	7.949413	60.036468	-2.633442	-3.766140	70.350114	13.546137	-118.068868	0.000000	0.000000	
0.323864	0.000000	0.000000	0.000000	-24.526443	8.230493	5.102640	60.113625	-1.111929	-3.333236	75.020400	14.641203	-121.521500	0.000000	0.000000	
0.325758	0.000000	0.000000	0.000000	-30.838236	10.750722	11.138762	59.097701	-2.669537	-2.404758	43.328067	4.805038	-106.738922	0.000000	0.000000	
0.327652	0.000000	0.000000	0.000000	-42.252874	15.935869	23.080586	60.750807	-1.408613	3.537991	-76.401084	29.141875	10.007750	0.000000	0.000000	
0.329545	0.000000	0.000000	0.000000	-48.866760	19.184584	36.594476	62.227837	-4.525513	6.568434	-71.803766	51.909251	1.395684	0.000000	0.000000	
0.331439	0.000000	0.000000	0.000000	-52.162440	20.838537	39.546956	62.870430	-2.433161	10.425159	-66.638673	62.587568	-4.434364	0.000000	0.000000	
0.333333	0.000000	0.000000	0.000000	-49.902004	19.749221	40.595785	62.578508	-6.255999	6.805310	-67.010144	54.946154	-6.986124	0.000000	0.000000	
0.335227	0.000000	0.000000	0.000000	-43.397335	16.550983	28.663885	61.310497	-4.380486	2.910320	-70.915372	33.131018	-13.148847	0.000000	0.000000	
0.337121	0.000000	0.000000	0.000000	-36.380791	13.261876	16.254561	60.031404	-1.527049	0.644684	-53.743427	11.830986	-29.546411	0.000000	0.000000	
0.339015	0.000000	0.000000	0.000000	-29.942514	10.454695	10.070134	59.680648	-1.786213	-1.991163	46.437094	8.016481	-114.512009	0.000000	0.000000	
0.340909	0.000000	0.000000	0.000000	-28.382908	9.728401	9.247951	59.216783	-2.790737	-3.259553	66.613233	8.302393	-127.168866	0.000000	0.000000	
0.342803	0.000000	0.000000	0.000000	-28.942289	9.952106	8.642701	59.150780	-1.945809	-2.595640	64.482296	7.365105	-124.716202	0.000000	0.000000	
0.344697	0.000000	0.000000	0.000000	-49.642702	18.657000	28.735647	57.496067	-3.615601	2.912569	-129.633324	54.407961	167.188367	0.000000	0.000000	
0.346591	0.000000	0.000000	0.000000	-48.242362	18.089760	27.397313	57.816156	-3.376806	2.752456	-124.730836	49.388505	160.870167	0.000000	0.000000	
0.348485	0.000000	0.000000	0.000000	-48.104756	18.271834	29.940353	59.190696	-3.830388	3.527128	-109.292273	50.503734	139.620100	0.000000	0.000000	
0.350379	0.000000	0.000000	0.000000	-52.056537	20.699809	43.083125	62.303187	-6.384629	7.735932	-72.615277	63.270004	85.732374	0.000000	0.000000	
